<svg xmlns="http://www.w3.org/2000/svg" width="38.396" height="53.544" viewBox="0 0 38.396 53.544">
  <g id="Group_6819" data-name="Group 6819" transform="translate(-785.197 -561)">
    <g id="Search_results_for_Blood_drop_-_Flaticon-12_6_" data-name="Search results for Blood drop - Flaticon-12 (6)" transform="translate(785.197 561)">
      <g id="_5_Blood" data-name="5 Blood">
        <path id="Path_33377" data-name="Path 33377" d="M80.31,45.345c0-8.011,10.973-25.014,16.327-32.831a3.479,3.479,0,0,1,5.741,0c5.354,7.817,16.327,24.815,16.327,32.831a19.2,19.2,0,0,1-38.395,0Z" transform="translate(-80.309 -11.001)" fill="#f16969"/>
        <path id="Path_33378" data-name="Path 33378" d="M109.442,281.211A19.2,19.2,0,0,1,80.3,264.784a21.937,21.937,0,0,1,1.8-7.424,54.833,54.833,0,0,0,27.339,23.851Z" transform="translate(-80.3 -230.441)" fill="#de5555"/>
      </g>
    </g>
    <text id="B_" data-name="B+" transform="translate(794.895 597.272)" fill="#fff" font-size="13" font-family="Plus Jakarta Sans" font-weight="700" letter-spacing="0.096em"><tspan x="0" y="0">B+</tspan></text>
  </g>
</svg>
