<svg xmlns="http://www.w3.org/2000/svg" width="20.876" height="20.876" viewBox="0 0 20.876 20.876">
  <g id="Search_results_for_Blood_donors_-_Flaticon-12" data-name="Search results for Blood donors - Flaticon-12" transform="translate(0 0.001)">
    <g id="Blood_Donation" data-name="Blood Donation" transform="translate(0 -0.001)">
      <path id="Path_6386" data-name="Path 6386" d="M23.155,10.8a4.159,4.159,0,0,0,4.155-4.155c0-3.059-3.72-6.4-3.878-6.543a.415.415,0,0,0-.553,0C22.721.245,19,3.587,19,6.647A4.159,4.159,0,0,0,23.155,10.8Zm-1.662-4.57h1.246V4.985h.831V6.231h1.246v.831H23.57V8.309h-.831V7.062H21.493Z" transform="translate(-10.472 0.001)" fill="#303030"/>
      <rect id="Rectangle_201" data-name="Rectangle 201" width="2.787" height="9.756" transform="translate(0 10.423)" fill="#303030"/>
      <path id="Path_6387" data-name="Path 6387" d="M24.526,27.435a1.646,1.646,0,0,0-1.483-.245l-3.664,1.155a2.71,2.71,0,0,1-2.692,2.472H12.739a.415.415,0,0,1,0-.831h3.947a1.87,1.87,0,1,0,0-3.739h-4.2A4.625,4.625,0,0,0,9.316,25H9v8.446l4.275.951a6.78,6.78,0,0,0,1.442.158,6.651,6.651,0,0,0,3.184-.811l6.438-3.514a1.661,1.661,0,0,0,.187-2.8Z" transform="translate(-4.327 -13.679)" fill="#303030"/>
    </g>
  </g>
</svg>
