<svg xmlns="http://www.w3.org/2000/svg" width="84" height="84" viewBox="0 0 84 84">
  <g id="Group_6838" data-name="Group 6838" transform="translate(-2847 -1224)">
    <circle id="Ellipse_629" data-name="Ellipse 629" cx="42" cy="42" r="42" transform="translate(2847 1224)" fill="none"/>
    <g id="Search_results_for_Medical_case_-_Flaticon-12" data-name="Search results for Medical case - Flaticon-12" transform="translate(2859.633 1236.447)">
      <path id="Path_33370" data-name="Path 33370" d="M26.35,16.845V11.59a.451.451,0,0,1,.451-.451h8.508a.451.451,0,0,1,.451.451v5.255h3.93V11.59a4.389,4.389,0,0,0-4.38-4.38H26.8a4.389,4.389,0,0,0-4.38,4.38v5.255Z" transform="translate(-1.683 0)" fill="#e7e7e6"/>
      <path id="Path_33371" data-name="Path 33371" d="M51.53,16.512H48.466V15.277a1.478,1.478,0,0,0-1.478-1.487H43.382A1.487,1.487,0,0,0,41.9,15.277v1.235H16.866V15.277a1.487,1.487,0,0,0-1.487-1.487H11.774A1.478,1.478,0,0,0,10.3,15.277v1.235H7.222a1.8,1.8,0,0,0-1.8,1.857v29.6a1.8,1.8,0,0,0,1.848,1.857h3.064v1.235a1.478,1.478,0,0,0,1.478,1.487h3.605A1.487,1.487,0,0,0,16.9,51.058V49.824H41.886v1.235a1.487,1.487,0,0,0,1.487,1.487h3.605a1.478,1.478,0,0,0,1.478-1.487V49.824h3.064a1.8,1.8,0,0,0,1.848-1.857v-29.6a1.8,1.8,0,0,0-1.839-1.857Z" transform="translate(-0.005 -0.649)" fill="#fb5058"/>
      <path id="Path_33372" data-name="Path 33372" d="M48.461,49.26a1.7,1.7,0,0,1-1.7,1.7H43.585a1.7,1.7,0,0,1-1.7-1.7H16.861a1.7,1.7,0,0,1-1.7,1.7H11.985a1.7,1.7,0,0,1-1.7-1.7H5.37v2.208a1.8,1.8,0,0,0,1.848,1.857h3.064v1.244a1.469,1.469,0,0,0,1.469,1.478h3.605a1.469,1.469,0,0,0,1.469-1.478V53.325H41.881v1.244a1.469,1.469,0,0,0,1.469,1.478h3.605a1.469,1.469,0,0,0,1.469-1.478V53.325h3.064a1.8,1.8,0,0,0,1.848-1.857V49.26Z" transform="translate(0 -4.151)" fill="#a95153"/>
      <path id="Path_33373" data-name="Path 33373" d="M37.252,32.164H34.314a.631.631,0,0,1-.631-.631V28.595a.64.64,0,0,0-.6-.595H29.474a.64.64,0,0,0-.631.631v2.938a.631.631,0,0,1-.631.631H25.3a.64.64,0,0,0-.631.631v3.551a.64.64,0,0,0,.631.631h2.938a.631.631,0,0,1,.631.631v2.938a.64.64,0,0,0,.631.631h3.578a.64.64,0,0,0,.631-.631V37.608a.631.631,0,0,1,.631-.631h2.938a.64.64,0,0,0,.631-.631V32.795a.64.64,0,0,0-.658-.631Z" transform="translate(-1.905 -2.052)" fill="#e7e7e6"/>
    </g>
  </g>
</svg>
