<svg xmlns="http://www.w3.org/2000/svg" width="84" height="84" viewBox="0 0 84 84">
  <g id="Group_6731" data-name="Group 6731" transform="translate(-1328 -464)">
    <circle id="Ellipse_622" data-name="Ellipse 622" cx="42" cy="42" r="42" transform="translate(1328 464)" fill="#ffdbee"/>
    <g id="Search_results_for_Medical_case_-_Flaticon-12" data-name="Search results for Medical case - Flaticon-12" transform="translate(1348.958 484.197)">
      <path id="Path_33370" data-name="Path 33370" d="M24.986,13.5V10.071a.294.294,0,0,1,.294-.294h5.557a.294.294,0,0,1,.294.294V13.5H33.7V10.071A2.867,2.867,0,0,0,30.837,7.21H25.281a2.867,2.867,0,0,0-2.861,2.861V13.5Z" transform="translate(-7.014 0)" fill="#e7e7e6"/>
      <path id="Path_33371" data-name="Path 33371" d="M35.533,15.568h-2v-.806a.965.965,0,0,0-.965-.971H30.212a.971.971,0,0,0-.971.971v.806H12.9v-.806a.971.971,0,0,0-.971-.971H9.569a.965.965,0,0,0-.965.971v.806H6.6A1.177,1.177,0,0,0,5.42,16.78V36.11a1.177,1.177,0,0,0,1.207,1.213h2v.806a.965.965,0,0,0,.965.971h2.354a.971.971,0,0,0,.971-.971v-.806H29.235v.806a.971.971,0,0,0,.971.971h2.354a.965.965,0,0,0,.965-.971v-.806h2a1.177,1.177,0,0,0,1.207-1.213V16.78a1.177,1.177,0,0,0-1.2-1.213Z" transform="translate(-0.021 -2.707)" fill="#fb5058"/>
      <path id="Path_33372" data-name="Path 33372" d="M33.511,49.26A1.112,1.112,0,0,1,32.4,50.372H30.327a1.112,1.112,0,0,1-1.112-1.112H12.874a1.112,1.112,0,0,1-1.112,1.112H9.69A1.112,1.112,0,0,1,8.578,49.26H5.37V50.7a1.177,1.177,0,0,0,1.207,1.213h2v.812a.959.959,0,0,0,.959.965h2.354a.959.959,0,0,0,.959-.965v-.812H29.214v.812a.959.959,0,0,0,.959.965h2.354a.959.959,0,0,0,.959-.965v-.812h2A1.177,1.177,0,0,0,36.7,50.7V49.26Z" transform="translate(0 -17.299)" fill="#a95153"/>
      <path id="Path_33373" data-name="Path 33373" d="M32.887,30.719H30.968a.412.412,0,0,1-.412-.412V28.388A.418.418,0,0,0,30.162,28H27.807a.418.418,0,0,0-.412.412v1.919a.412.412,0,0,1-.412.412h-1.9a.418.418,0,0,0-.412.412v2.319a.418.418,0,0,0,.412.412H27a.412.412,0,0,1,.412.412v1.919a.418.418,0,0,0,.412.412h2.337a.418.418,0,0,0,.412-.412V34.275a.412.412,0,0,1,.412-.412H32.9a.418.418,0,0,0,.412-.412V31.131a.418.418,0,0,0-.43-.412Z" transform="translate(-7.94 -8.553)" fill="#e7e7e6"/>
    </g>
  </g>
</svg>
