<svg xmlns="http://www.w3.org/2000/svg" width="19.714" height="19.714" viewBox="0 0 19.714 19.714">
  <g id="Data_Icons_Symbols-12" data-name="Data Icons &amp; Symbols-12" transform="translate(0)">
    <path id="Path_19594" data-name="Path 19594" d="M11.012,0h-.578V9.279h9.279V8.7A8.739,8.739,0,0,0,11.012,0ZM3.007,17.524a8.652,8.652,0,0,0,5.7,2.19,8.706,8.706,0,0,0,8.663-8.7v-.578H10.1ZM9.279,2.349H8.7A8.606,8.606,0,0,0,3.65,3.988L9.279,9.618ZM2.756,4.728A8.666,8.666,0,0,0,0,11.012a8.652,8.652,0,0,0,2.19,5.7l6.273-6.273Z" transform="translate(0)"/>
  </g>
</svg>
