<svg xmlns="http://www.w3.org/2000/svg" width="84" height="84" viewBox="0 0 84 84">
  <g id="Group_6728" data-name="Group 6728" transform="translate(-380 -464)">
    <circle id="Ellipse_619" data-name="Ellipse 619" cx="42" cy="42" r="42" transform="translate(380 464)" fill="#f8d5d5"/>
    <g id="Search_results_for_Blood_donors_-_Flaticon-12_1_" data-name="Search results for Blood donors - Flaticon-12 (1)" transform="translate(323.855 465.256)">
      <path id="Path_33350" data-name="Path 33350" d="M188.372,384h-7.023a4.949,4.949,0,0,0-3.5,1.449L176,387.3l4.124,4.124,1.991-1.991a1.649,1.649,0,0,1,1.166-.483h5.09a2.474,2.474,0,1,0,0-4.949Z" transform="translate(-86.103 -330.06)" fill="#fab991"/>
      <path id="Path_33351" data-name="Path 33351" d="M236.137,368.482a1.649,1.649,0,0,0-2.333,0l-6.115,6.115h-8.531a1.65,1.65,0,0,0-1.166.483L216,377.072l2.474,2.474,1.65-1.65h7.906a2.458,2.458,0,0,0,1.75-.725l6.357-6.357a1.65,1.65,0,0,0,0-2.333Z" transform="translate(-121.979 -315.709)" fill="#f0915a"/>
      <path id="Path_33352" data-name="Path 33352" d="M284.042,397.415h-.55a.825.825,0,0,1-.825-.825v-1.1a.825.825,0,0,1,.825-.825h.55a1.375,1.375,0,0,1,0,2.749Z" transform="translate(-181.772 -339.626)" fill="#f0915a"/>
      <path id="Path_33353" data-name="Path 33353" d="M89.656,411.555l4.366,4.365L89.9,420.045H80l8.489-8.49a.825.825,0,0,1,1.166,0Z" transform="translate(0 -354.557)" fill="#555a6e"/>
      <path id="Path_33354" data-name="Path 33354" d="M180.124,456l2.716,2.716a.825.825,0,0,1,0,1.166l-.242.242H176Z" transform="translate(-86.103 -394.637)" fill="#463c4b"/>
      <path id="Path_33355" data-name="Path 33355" d="M161.058,16.827a3.37,3.37,0,0,0-4.423,0C153.519,19.563,144,28.669,144,37.774a14.85,14.85,0,0,0,29.692,0C173.692,28.669,164.173,19.563,161.058,16.827Z" transform="translate(-57.402)" fill="#f76c82"/>
      <path id="Path_33356" data-name="Path 33356" d="M151.423,45.033a7.342,7.342,0,0,0,7.423-7.258V16a3.352,3.352,0,0,0-2.211.827C153.519,19.563,144,28.669,144,37.774v0A7.342,7.342,0,0,0,151.423,45.033Z" transform="translate(-57.402)" fill="#ee6076"/>
      <path id="Path_33357" data-name="Path 33357" d="M168.825,60.155A.825.825,0,0,1,168,59.33c0-6.437,6.092-14.081,11.793-19.088l.057-.05.066-.039a.926.926,0,0,1,.962.033.825.825,0,0,1-.162,1.442C175.334,46.4,169.65,53.5,169.65,59.33A.825.825,0,0,1,168.825,60.155Zm11.114-18.613Zm0,0h0Zm0,0h0Z" transform="translate(-80.337 -19.576)" fill="#f6897d" opacity="0.6"/>
      <path id="Path_33358" data-name="Path 33358" d="M244.988,176.009a2.9,2.9,0,0,0-2.557,1.161,2.9,2.9,0,0,0-2.557-1.161,2.971,2.971,0,0,0-2.679,3.114c.123,3.127,2.947,5.536,4.135,6.414a1.861,1.861,0,0,0,2.2,0c1.188-.878,4.011-3.287,4.135-6.414A2.971,2.971,0,0,0,244.988,176.009Z" transform="translate(-140.987 -143.505)" fill="#d7e6f0"/>
    </g>
  </g>
</svg>
