<svg xmlns="http://www.w3.org/2000/svg" width="18.021" height="18.023" viewBox="0 0 18.021 18.023">
  <g id="Search_results_for_Home_-_Flaticon-12" data-name="Search results for Home - Flaticon-12" transform="translate(0)">
    <path id="Path_19591" data-name="Path 19591" d="M17.537,7.839h0L10.184.486a1.659,1.659,0,0,0-2.347,0L.489,7.834l-.007.008a1.658,1.658,0,0,0,1.1,2.827l.051,0H1.93v5.41a1.944,1.944,0,0,0,1.942,1.942H6.748a.528.528,0,0,0,.528-.528V13.253a.887.887,0,0,1,.886-.886h1.7a.887.887,0,0,1,.886.886V17.5a.528.528,0,0,0,.528.528h2.876a1.944,1.944,0,0,0,1.942-1.942v-5.41h.272a1.659,1.659,0,0,0,1.174-2.832Zm0,0" transform="translate(0)" fill="#f3206f"/>
  </g>
</svg>
