<svg xmlns="http://www.w3.org/2000/svg" xmlns:xlink="http://www.w3.org/1999/xlink" width="68.161" height="92.434" viewBox="0 0 68.161 92.434">
  <defs>
    <radialGradient id="radial-gradient" cx="0.463" cy="0.507" r="1.091" gradientTransform="matrix(1, 0, 0, 0.519, 0, 0.244)" gradientUnits="objectBoundingBox">
      <stop offset="0" stop-color="#ff3d2c"/>
      <stop offset="0.882" stop-color="#db06a2"/>
      <stop offset="1" stop-color="#7f0040"/>
    </radialGradient>
    <radialGradient id="radial-gradient-2" cx="0.118" cy="0.046" r="1.347" gradientTransform="translate(-0.49) scale(1.979 1)" gradientUnits="objectBoundingBox">
      <stop offset="0" stop-color="#ff3d2c"/>
      <stop offset="0.94" stop-color="#db06a2"/>
      <stop offset="1" stop-color="#7f0040"/>
    </radialGradient>
    <radialGradient id="radial-gradient-3" cx="0.193" cy="0.113" r="1.003" gradientTransform="translate(-0.202) scale(1.404 1)" gradientUnits="objectBoundingBox">
      <stop offset="0" stop-color="#ff3d2c"/>
      <stop offset="0.879" stop-color="#db06a2"/>
      <stop offset="1" stop-color="#7f0040"/>
    </radialGradient>
  </defs>
  <g id="Layer_2" data-name="Layer 2" transform="translate(0)">
    <g id="Layer_1" data-name="Layer 1" transform="translate(0)">
      <path id="Path_237" data-name="Path 237" d="M32.64,0A69.065,69.065,0,0,1,9.658,40.083c-21,19.381-6.42,57.964,30.842,51.664a20.222,20.222,0,0,0,7.5-2.58s-2.82.84-10.021-3.12a26.762,26.762,0,0,1-24.962-6,24.362,24.362,0,0,1-6.6-27.422s1.62-7.861,14.761-20.942C21.179,31.682,29.1,24,32.64,0Z" transform="translate(0)" fill="url(#radial-gradient)"/>
      <path id="Path_238" data-name="Path 238" d="M13.577,0a50.944,50.944,0,0,0,5.4,18.961,41.4,41.4,0,0,0,13.8,14.761C43.579,42.183,50.3,55.5,48.919,65.165s-4.08,21.242-19.981,24.422c0,0-4.68,1.32-20.341-9.121,0,0-6-1.86-4.56-4.62,0,0-.54-1.68,12.9,2.94a43.924,43.924,0,0,0,9.781,1.62,13.681,13.681,0,0,0,5.16-3.24,8.7,8.7,0,0,0-6,.9,16.441,16.441,0,0,1-13.2-4.02s-.9-2.22,3.96-.6a27.9,27.9,0,0,0,14.521-2.88,10.021,10.021,0,0,1,10.081,2.94s8.281-9.121-1.5-25.5A64.745,64.745,0,0,0,27.2,34.082C20.477,28.982,11.357,12,13.577,0Z" transform="translate(19.063)" fill="url(#radial-gradient-2)"/>
      <path id="Path_239" data-name="Path 239" d="M22.191,18.95h-.48A125.291,125.291,0,0,1,4.49,13.43h0a124.148,124.148,0,0,0,17.161,5.52h.48a14.881,14.881,0,0,0,6.6-2.1h0A15.661,15.661,0,0,1,22.191,18.95Z" transform="translate(22.449 67.156)" fill="#fff"/>
      <path id="Path_240" data-name="Path 240" d="M13.328,6.55s1.98,2.58-.9,9.961-10.5,14.221-7.2,25.922a17.221,17.221,0,0,0,6,1.98s-3.78-1.38-2.16-4.62c0,0,.6-1.44,4.44,0a19.081,19.081,0,0,0,11.341-1.98,13.141,13.141,0,0,1,6.36-1.14S34.33,19.631,13.328,6.55Z" transform="translate(22.072 32.753)" fill="url(#radial-gradient-3)"/>
    </g>
  </g>
</svg>
