<svg xmlns="http://www.w3.org/2000/svg" width="22.822" height="25.354" viewBox="0 0 22.822 25.354">
  <g id="Search_results_for_Logout_-_Flaticon-12" data-name="Search results for Logout - Flaticon-12" transform="translate(-2.998 -2)">
    <path id="Path_19913" data-name="Path 19913" d="M14.411,2a1.268,1.268,0,0,1,1.268,1.268V15.946a1.268,1.268,0,0,1-2.536,0V3.268A1.268,1.268,0,0,1,14.411,2ZM10.437,6.526a1.268,1.268,0,0,1-.464,1.732,8.875,8.875,0,1,0,8.873,0,1.268,1.268,0,0,1,1.268-2.195,11.41,11.41,0,1,1-11.411,0,1.268,1.268,0,0,1,1.733.463Z" fill="#2d2d2d" fill-rule="evenodd"/>
  </g>
</svg>
