<svg xmlns="http://www.w3.org/2000/svg" width="35.214" height="25.61" viewBox="0 0 35.214 25.61">
  <g id="Search_results_for_Messages_-_Flaticon-12_2_" data-name="Search results for Messages - Flaticon-12 (2)" transform="translate(0 -69.818)">
    <path id="Path_33329" data-name="Path 33329" d="M32.013,69.818H3.2a3.2,3.2,0,0,0-3.2,3.2V92.227a3.2,3.2,0,0,0,3.2,3.2H32.013a3.2,3.2,0,0,0,3.2-3.2V73.019a3.2,3.2,0,0,0-3.2-3.2ZM3.2,71.419H32.013a1.6,1.6,0,0,1,.536.1L18.7,85.368a1.529,1.529,0,0,1-2.162.007l-.007-.007L2.665,71.515a1.6,1.6,0,0,1,.536-.1ZM1.6,92.227V73.019a1.6,1.6,0,0,1,0-.28l9.908,9.884L1.6,92.507a1.6,1.6,0,0,1,0-.28Zm30.412,1.6H3.2a1.6,1.6,0,0,1-.536-.1l9.98-9.98L15.39,86.5a3.129,3.129,0,0,0,4.425.008l.008-.008,2.745-2.745,9.98,9.98A1.6,1.6,0,0,1,32.013,93.828Zm1.6-1.321-9.908-9.884,9.908-9.884a1.6,1.6,0,0,1,0,.28V92.227a1.6,1.6,0,0,1,0,.28Z" fill="#2d2d2d"/>
  </g>
</svg>
