<svg xmlns="http://www.w3.org/2000/svg" width="84" height="84" viewBox="0 0 84 84">
  <g id="Group_6730" data-name="Group 6730" transform="translate(-1012 -464)">
    <circle id="Ellipse_621" data-name="Ellipse 621" cx="42" cy="42" r="42" transform="translate(1012 464)" fill="#dbefff"/>
    <g id="Search_results_for_Ngo_-_Flaticon-12_1_" data-name="Search results for Ngo - Flaticon-12 (1)" transform="translate(1034.137 486.135)">
      <path id="Path_33366" data-name="Path 33366" d="M81.014,201.758c-15.865-8.218-17.99-22.092-10.733-25.42,7.178-3.291,10.733,6.5,10.733,6.5s3.554-9.79,10.732-6.5a6.7,6.7,0,0,1,1.079.62l0,0c.049.034.1.069.143.1C98.693,181.344,95.906,194.043,81.014,201.758Z" transform="translate(-61.151 -162.029)" fill="#ec6161"/>
      <path id="Path_33367" data-name="Path 33367" d="M92.826,176.957c-2.816-1.817-11.475,4.271-11.475,10,0,0-7.551-9.557-10.895-2.963s10.558,17.766,10.558,17.766c-15.865-8.218-17.99-22.092-10.733-25.421,7.178-3.291,10.733,6.5,10.733,6.5s3.554-9.79,10.732-6.5A6.694,6.694,0,0,1,92.826,176.957Z" transform="translate(-61.151 -162.029)" fill="#d63030"/>
      <ellipse id="Ellipse_623" data-name="Ellipse 623" cx="1.386" cy="2.437" rx="1.386" ry="2.437" transform="translate(29.565 19.764)" fill="#f59393"/>
      <path id="Path_33368" data-name="Path 33368" d="M351.986,0h4.3V8.176h-4.3Z" transform="translate(-324.675)" fill="#ec6161"/>
      <path id="Path_33369" data-name="Path 33369" d="M37.7,16.193,19.863,5.837,2.029,16.193,0,12.7,19.863,1.165,39.727,12.7Z" transform="translate(0 -1.073)" fill="#0a93a3"/>
    </g>
  </g>
</svg>
