<svg xmlns="http://www.w3.org/2000/svg" width="84" height="84" viewBox="0 0 84 84">
  <g id="Group_6839" data-name="Group 6839" transform="translate(-2736 -1224)">
    <circle id="Ellipse_628" data-name="Ellipse 628" cx="42" cy="42" r="42" transform="translate(2736 1224)" fill="none"/>
    <g id="Search_results_for_Ngo_-_Flaticon-12_1_" data-name="Search results for Ngo - Flaticon-12 (1)" transform="translate(2752.429 1241.511)">
      <path id="Path_33366" data-name="Path 33366" d="M85.244,209.257c-20.423-10.58-23.16-28.441-13.817-32.725,9.241-4.237,13.817,8.366,13.817,8.366s4.576-12.6,13.816-8.366a8.62,8.62,0,0,1,1.39.8l.006,0c.063.044.123.089.184.133C108,182.978,104.415,199.325,85.244,209.257Z" transform="translate(-59.672 -158.113)" fill="#ec6161"/>
      <path id="Path_33367" data-name="Path 33367" d="M100.45,177.33c-3.625-2.339-14.773,5.5-14.773,12.87,0,0-9.72-12.3-14.025-3.814s13.592,22.872,13.592,22.872c-20.423-10.58-23.16-28.441-13.817-32.725,9.241-4.237,13.817,8.366,13.817,8.366s4.576-12.6,13.816-8.366A8.617,8.617,0,0,1,100.45,177.33Z" transform="translate(-59.672 -158.113)" fill="#d63030"/>
      <ellipse id="Ellipse_623" data-name="Ellipse 623" cx="1.784" cy="3.137" rx="1.784" ry="3.137" transform="translate(38.061 25.443)" fill="#f59393"/>
      <path id="Path_33368" data-name="Path 33368" d="M351.986,0h5.534V10.525h-5.534Z" transform="translate(-316.827 0)" fill="#ec6161"/>
      <path id="Path_33369" data-name="Path 33369" d="M48.531,20.512,25.571,7.18,2.612,20.512,0,16.014,25.571,1.165,51.143,16.014Z" transform="translate(0 -1.047)" fill="#0a93a3"/>
    </g>
  </g>
</svg>
