<svg xmlns="http://www.w3.org/2000/svg" width="20.876" height="17.671" viewBox="0 0 20.876 17.671">
  <g id="Charity_Icons_Symbols-12" data-name="Charity Icons &amp; Symbols-12" transform="translate(0 -31.93)">
    <path id="Path_19593" data-name="Path 19593" d="M14.945,32.71a2.892,2.892,0,0,0-2-.78,3.187,3.187,0,0,0-2.245.933l-.263.263-.263-.263A3.188,3.188,0,0,0,7.93,31.93a2.892,2.892,0,0,0-2,.78A2.985,2.985,0,0,0,5.865,37l4.573,4.573L15.011,37A2.985,2.985,0,0,0,14.945,32.71ZM8.835,49.6l0-4.531a3.816,3.816,0,0,0-2.605-3.954,2.952,2.952,0,0,1-1.131-.8c-.627-.653-1.3-1.547-2.167-1.536v0a1.144,1.144,0,0,0-.812.352,1.391,1.391,0,0,0,.154,1.953l1.614,1.614a.8.8,0,0,1,0,1.136L1.7,41.649a2.515,2.515,0,0,1-.707-1.406,1.97,1.97,0,0,1,1.74-2.251l-.326-1.316C2.383,31.79,0,32.387,0,33.536v8.576a2,2,0,0,0,.581,1.413c3.99,4.027,3.435,2.73,3.435,6.075ZM20.876,33.536c0-1.149-2.383-1.746-2.408,3.139l-.326,1.316a1.97,1.97,0,0,1,1.74,2.251,2.514,2.514,0,0,1-.707,1.406l-2.182,2.182a.8.8,0,0,1,0-1.136l1.614-1.614a1.391,1.391,0,0,0,.154-1.953,1.144,1.144,0,0,0-.812-.352v0c-.869-.011-1.539.882-2.167,1.536a2.953,2.953,0,0,1-1.131.8,3.816,3.816,0,0,0-2.605,3.954l0,4.531H16.86c0-3.345-.555-2.048,3.435-6.075a2,2,0,0,0,.581-1.413Z"/>
  </g>
</svg>
