<svg xmlns="http://www.w3.org/2000/svg" width="26.81" height="29.829" viewBox="0 0 26.81 29.829">
  <g id="Bell_-_Free_ui_icons-2_1_" data-name="Bell - Free ui icons-2 (1)" transform="translate(-3.415 -2)">
    <path id="_28" data-name="28" d="M29.676,24.006l-1.821-2.62a2.13,2.13,0,0,1-.383-1.214v-7.52a10.651,10.651,0,1,0-21.3,0v7.52a2.13,2.13,0,0,1-.383,1.214l-1.821,2.62A2.13,2.13,0,0,0,5.54,27.563H11.6a5.326,5.326,0,0,0,10.438,0H28.1a2.13,2.13,0,0,0,1.576-3.558ZM16.82,29.693a3.2,3.2,0,0,1-3-2.13h6.007a3.2,3.2,0,0,1-3,2.13ZM5.54,25.433a.863.863,0,0,0,.128-.149L7.532,22.6A4.261,4.261,0,0,0,8.3,20.171v-7.52a8.521,8.521,0,1,1,17.042,0v7.52a4.261,4.261,0,0,0,.767,2.428l1.864,2.684a.863.863,0,0,0,.128.149Z" transform="translate(0)" fill="#2d2d2d"/>
  </g>
</svg>
