<svg xmlns="http://www.w3.org/2000/svg" width="17.768" height="15.709" viewBox="0 0 17.768 15.709">
  <g id="Search_results_for_Volunteer_-_Flaticon-12" data-name="Search results for Volunteer - Flaticon-12" transform="translate(-0.013 -29.678)">
    <path id="Path_19595" data-name="Path 19595" d="M115.132,105.494l.484-.839a.166.166,0,0,0,0-.051.336.336,0,0,0-.017-.108.294.294,0,0,1-.036-.018.131.131,0,0,0-.176.048h0l-.512.888a.286.286,0,0,1-.226.159,1.2,1.2,0,0,0-.727.408,2.212,2.212,0,0,0-.37.78.286.286,0,1,1-.549-.163,2.744,2.744,0,0,1,.478-.981,1.689,1.689,0,0,1,.85-.554V102.79a.13.13,0,0,0-.129-.129.128.128,0,0,0-.129.129v1.794a.287.287,0,0,1-.574,0v-2.418a.129.129,0,0,0-.258,0v2.418a.287.287,0,0,1-.574,0v-1.87a.13.13,0,0,0-.129-.129.132.132,0,0,0-.129.129v1.87a.287.287,0,0,1-.574,0v-1.1a.127.127,0,0,0-.037-.091.127.127,0,0,0-.182,0,.128.128,0,0,0-.039.091v2.673a.913.913,0,0,0,.29.67,1.1,1.1,0,0,1,.316.966c0,.014,0-.026,0,.112v1.611l1.975,1.975v-3.914a1.524,1.524,0,0,1,.05-.4,1.544,1.544,0,0,1,.158-.372l.751-1.3A.076.076,0,0,0,115.132,105.494Zm5.972-1.3.008-.016.485-.839a.155.155,0,0,0,0-.051.33.33,0,0,0-.017-.107.236.236,0,0,1-.036-.018.133.133,0,0,0-.177.047l-.513.888a.287.287,0,0,1-.226.159,1.2,1.2,0,0,0-.727.409,2.2,2.2,0,0,0-.37.779.286.286,0,0,1-.549-.163,2.759,2.759,0,0,1,.477-.981,1.692,1.692,0,0,1,.851-.554v-2.275a.128.128,0,0,0-.039-.091.127.127,0,0,0-.182,0,.128.128,0,0,0-.039.091v1.794a.286.286,0,1,1-.573,0v-2.418a.128.128,0,0,0-.039-.091.127.127,0,0,0-.182,0,.133.133,0,0,0-.037.091v2.418a.287.287,0,0,1-.574,0V101.4a.132.132,0,0,0-.129-.129.126.126,0,0,0-.091.039.128.128,0,0,0-.039.091v1.87a.287.287,0,0,1-.574,0v-1.1a.129.129,0,0,0-.039-.091.126.126,0,0,0-.091-.039.128.128,0,0,0-.091.039.129.129,0,0,0-.039.091v2.673a.923.923,0,0,0,.074.364.941.941,0,0,0,.216.306,1.1,1.1,0,0,1,.317.967v5.865l1.975-1.975v-4.105a1.484,1.484,0,0,1,.209-.773h0Z" transform="translate(-107.696 -68.576)"/>
    <path id="Path_19596" data-name="Path 19596" d="M16.3,31.17a5.089,5.089,0,0,0-7.4.224,5.081,5.081,0,1,0-7.4,6.955L3.92,40.777V39.334c0-.06,0-.029,0-.116,0-.232,0-.412-.138-.546a1.506,1.506,0,0,1-.347-.5,1.471,1.471,0,0,1-.123-.589V34.913a.7.7,0,0,1,.7-.7.678.678,0,0,1,.129.013v-.085a.705.705,0,0,1,.7-.7.675.675,0,0,1,.144.015.689.689,0,0,1,.192-.356.7.7,0,0,1,1.2.43.632.632,0,0,1,.132-.013.7.7,0,0,1,.7.7v1.431l0,0a.7.7,0,0,1,.889-.264.39.39,0,0,1,.11.044.552.552,0,0,1,.225.287.89.89,0,0,1,.06.318.681.681,0,0,1-.084.338l-.484.838c0,.006-.006.01-.009.015l-.751,1.3a.96.96,0,0,0-.1.235.943.943,0,0,0-.032.253v4.6a.286.286,0,0,1-.084.2L8.274,45.13a.883.883,0,0,0,1.247,0l.465-.465a.286.286,0,0,1-.084-.2V38.016c0-.06,0-.028,0-.116,0-.232,0-.412-.138-.546a1.51,1.51,0,0,1-.347-.5,1.481,1.481,0,0,1-.124-.59V33.6a.7.7,0,0,1,.7-.7.678.678,0,0,1,.129.012v-.085a.705.705,0,0,1,.7-.7.739.739,0,0,1,.143.015.7.7,0,0,1,.689-.562.7.7,0,0,1,.7.635.731.731,0,0,1,.133-.013.7.7,0,0,1,.7.7v1.431l0,0a.7.7,0,0,1,.891-.264.4.4,0,0,1,.109.044.552.552,0,0,1,.226.287.915.915,0,0,1,.059.318.685.685,0,0,1-.083.338l-.485.839a.074.074,0,0,1-.009.014l-.75,1.3h0a.938.938,0,0,0-.1.233.978.978,0,0,0-.031.253v3.937L16.3,38.351a5.094,5.094,0,0,0,0-7.18Z" transform="translate(0)"/>
  </g>
</svg>
