<svg xmlns="http://www.w3.org/2000/svg" width="84" height="84" viewBox="0 0 84 84">
  <g id="Group_6729" data-name="Group 6729" transform="translate(-696 -464)">
    <circle id="Ellipse_620" data-name="Ellipse 620" cx="42" cy="42" r="42" transform="translate(696 464)" fill="#fff0dc"/>
    <g id="Search_results_for_Volunteers_-_Flaticon-12" data-name="Search results for Volunteers - Flaticon-12" transform="translate(699.651 435.092)">
      <g id="Group_6727" data-name="Group 6727" transform="translate(15.999 51.903)">
        <path id="Path_33359" data-name="Path 33359" d="M155.724,56.033c1.415-2.753,2.831-4.13,5.662-4.13a5.588,5.588,0,0,1,5.662,5.507c0,5.507-5.662,9.151-11.324,14.658C150.062,66.561,144.4,62.916,144.4,57.41a5.588,5.588,0,0,1,5.662-5.507C152.893,51.9,154.308,53.28,155.724,56.033Z" transform="translate(-132.443 -51.903)" fill="#f76c82" fill-rule="evenodd"/>
        <path id="Path_33360" data-name="Path 33360" d="M23.6,170.5l-2.633-6.215c-2.3-5.418-5.643-1.929-4.841.5l3.045,9.243c.479,1.453,1.052,3.438,2.367,4.343l4.152,2.854a2.744,2.744,0,0,1,1.157,1.687l1.174,4.936,7.713-2.314c-.588-2.359-1.191-4.715-1.749-7.082-.608-2.583-1.119-4.131-4.653-5.1l-3.689-2.65A2.155,2.155,0,0,0,23.6,170.5Z" transform="translate(-15.999 -151.222)" fill="#efc7a4" fill-rule="evenodd"/>
        <path id="Path_33361" data-name="Path 33361" d="M84.621,272.534a2.067,2.067,0,0,0,.764,2.282L90.38,278.4a.7.7,0,0,0,.823-1.143Z" transform="translate(-78.148 -251.988)" fill="#d5a889" fill-rule="evenodd"/>
        <path id="Path_33362" data-name="Path 33362" d="M111.773,412.713l0,2.519a1,1,0,0,0,.993.992h10.246a.993.993,0,0,0,.993-.994l0-2.519a1,1,0,0,0-.993-.992H112.766a.993.993,0,0,0-.993.994Z" transform="translate(-102.854 -378.212)" fill="#a9b0bb" fill-rule="evenodd"/>
        <path id="Path_33363" data-name="Path 33363" d="M296.26,170.5l2.633-6.215c2.3-5.418,5.643-1.929,4.841.5l-3.045,9.243c-.479,1.453-1.052,3.438-2.367,4.343l-4.152,2.854a2.744,2.744,0,0,0-1.157,1.687l-1.174,4.936-7.713-2.314c.588-2.359,1.191-4.715,1.749-7.082.608-2.583,1.119-4.131,4.653-5.1l3.689-2.65A2.155,2.155,0,0,1,296.26,170.5Z" transform="translate(-259.158 -151.222)" fill="#efc7a4" fill-rule="evenodd"/>
        <path id="Path_33364" data-name="Path 33364" d="M359.549,272.534a2.067,2.067,0,0,1-.764,2.282l-4.995,3.588a.7.7,0,1,1-.823-1.143Z" transform="translate(-321.323 -251.988)" fill="#d5a889" fill-rule="evenodd"/>
        <path id="Path_33365" data-name="Path 33365" d="M281.085,412.713l0,2.519a1,1,0,0,1-.993.992H269.844a.993.993,0,0,1-.993-.994l0-2.519a1,1,0,0,1,.993-.992h10.246a.993.993,0,0,1,.993.994Z" transform="translate(-245.305 -378.212)" fill="#a9b0bb" fill-rule="evenodd"/>
      </g>
    </g>
  </g>
</svg>
