<svg xmlns="http://www.w3.org/2000/svg" width="84" height="84" viewBox="0 0 84 84">
  <g id="Group_6840" data-name="Group 6840" transform="translate(-2625 -1224)">
    <circle id="Ellipse_627" data-name="Ellipse 627" cx="42" cy="42" r="42" transform="translate(2625 1224)" fill="none"/>
    <g id="Search_results_for_Volunteers_-_Flaticon-12" data-name="Search results for Volunteers - Flaticon-12" transform="translate(2622.205 1189.61)">
      <g id="Group_6727" data-name="Group 6727" transform="translate(15.999 51.903)">
        <path id="Path_33359" data-name="Path 33359" d="M158.989,57.224c1.824-3.547,3.647-5.321,7.295-5.321A7.2,7.2,0,0,1,173.579,59c0,7.095-7.295,11.79-14.59,18.885C151.695,70.788,144.4,66.093,144.4,59a7.2,7.2,0,0,1,7.295-7.095C155.342,51.9,157.166,53.677,158.989,57.224Z" transform="translate(-128.995 -51.903)" fill="#f76c82" fill-rule="evenodd"/>
        <path id="Path_33360" data-name="Path 33360" d="M25.786,173.12l-3.393-8.008c-2.957-6.98-7.27-2.486-6.237.65l3.923,11.909c.617,1.872,1.355,4.43,3.05,5.6l5.35,3.677a3.536,3.536,0,0,1,1.491,2.173l1.513,6.36,9.938-2.981c-.758-3.04-1.535-6.075-2.253-9.125-.784-3.328-1.442-5.323-6-6.572l-4.753-3.414A2.777,2.777,0,0,0,25.786,173.12Z" transform="translate(-15.999 -148.28)" fill="#efc7a4" fill-rule="evenodd"/>
        <path id="Path_33361" data-name="Path 33361" d="M84.647,272.534a2.663,2.663,0,0,0,.984,2.94l6.436,4.623a.907.907,0,0,0,1.06-1.472Z" transform="translate(-76.308 -246.063)" fill="#d5a889" fill-rule="evenodd"/>
        <path id="Path_33362" data-name="Path 33362" d="M111.773,413l0,3.245a1.282,1.282,0,0,0,1.279,1.278h13.2a1.279,1.279,0,0,0,1.279-1.28l0-3.245a1.282,1.282,0,0,0-1.279-1.278h-13.2a1.279,1.279,0,0,0-1.279,1.28Z" transform="translate(-100.282 -368.549)" fill="#a9b0bb" fill-rule="evenodd"/>
        <path id="Path_33363" data-name="Path 33363" d="M299.76,173.12l3.393-8.008c2.957-6.98,7.27-2.486,6.237.65l-3.923,11.909c-.617,1.872-1.355,4.43-3.05,5.6l-5.35,3.677a3.535,3.535,0,0,0-1.49,2.173l-1.513,6.36-9.938-2.981c.758-3.04,1.535-6.075,2.253-9.125.784-3.328,1.442-5.323,6-6.572l4.753-3.414A2.776,2.776,0,0,1,299.76,173.12Z" transform="translate(-251.956 -148.28)" fill="#efc7a4" fill-rule="evenodd"/>
        <path id="Path_33364" data-name="Path 33364" d="M361.532,272.534a2.663,2.663,0,0,1-.984,2.94l-6.436,4.623a.907.907,0,1,1-1.06-1.472Z" transform="translate(-312.281 -246.063)" fill="#d5a889" fill-rule="evenodd"/>
        <path id="Path_33365" data-name="Path 33365" d="M284.613,413l0,3.245a1.282,1.282,0,0,1-1.279,1.278h-13.2a1.279,1.279,0,0,1-1.279-1.28l0-3.245a1.282,1.282,0,0,1,1.279-1.278h13.2a1.279,1.279,0,0,1,1.279,1.28Z" transform="translate(-238.514 -368.549)" fill="#a9b0bb" fill-rule="evenodd"/>
      </g>
    </g>
  </g>
</svg>
